<?xml version="1.0" encoding="UTF-8"?>
<svg width="10px" height="10px" viewBox="0 0 10 10" version="1.1" xmlns="http://www.w3.org/2000/svg" xmlns:xlink="http://www.w3.org/1999/xlink">
    <!-- Generator: sketchtool 48.2 (47327) - http://www.bohemiancoding.com/sketch -->
    <title>DFEDDA7D-1C07-490A-826A-AA968FED9A08</title>
    <desc>Created with sketchtool.</desc>
    <defs></defs>
    <g id="07_Transcription_Filter_applied" stroke="none" stroke-width="1" fill="none" fill-rule="evenodd" transform="translate(-1109.000000, -265.000000)">
        <g id="Filter" transform="translate(1092.000000, 161.000000)">
            <g id="Group-5" transform="translate(18.000000, 46.000000)">
                <g id="Group-6" transform="translate(0.000000, 59.000000)">
                    <rect id="Rectangle-9" stroke="#979797" x="0" y="0" width="8" height="8"></rect>
                    <path d="M0.0923076923,4.3 C0.0307692308,4.24 0,4.15 0,4.09 C0,4.03 0.0307692308,3.94 0.0923076923,3.88 L0.523076923,3.46 C0.646153846,3.34 0.830769231,3.34 0.953846154,3.46 L0.984615385,3.49 L2.67692308,5.26 C2.73846154,5.32 2.83076923,5.32 2.89230769,5.26 L7.01538462,1.09 L7.04615385,1.09 C7.16923077,0.97 7.35384615,0.97 7.47692308,1.09 L7.90769231,1.51 C8.03076923,1.63 8.03076923,1.81 7.90769231,1.93 L2.98461538,6.91 C2.92307692,6.97 2.86153846,7 2.76923077,7 C2.67692308,7 2.61538462,6.97 2.55384615,6.91 L0.153846154,4.39 L0.0923076923,4.3 Z" id="Shape" fill="#979797" fill-rule="nonzero"></path>
                </g>
            </g>
        </g>
    </g>
</svg>