<?xml version="1.0" encoding="UTF-8"?>
<svg width="18px" height="19px" viewBox="0 0 18 19" version="1.1" xmlns="http://www.w3.org/2000/svg" xmlns:xlink="http://www.w3.org/1999/xlink">
    <!-- Generator: sketchtool 48.2 (47327) - http://www.bohemiancoding.com/sketch -->
    <title>6F0D0007-39A7-429D-9EBF-A8C29708EE51</title>
    <desc>Created with sketchtool.</desc>
    <defs></defs>
    <g id="06_Transcription_Filter" stroke="none" stroke-width="1" fill="none" fill-rule="evenodd" transform="translate(-1229.000000, -136.000000)">
        <g id="Group-3" transform="translate(1224.000000, 131.000000)" stroke="#999999">
            <path d="M7.39310035,6 L20.5879477,6 C21.1402324,6 21.5879477,6.44771525 21.5879477,7 C21.5879477,7.22543279 21.5117766,7.44425217 21.3717926,7.62095654 L15.587695,14.9223306 L15.587695,20.9144874 C15.587695,21.2203783 15.447692,21.5094449 15.2076877,21.699095 L14.0674953,22.6000688 C13.6608617,22.9213884 13.0707391,22.8522278 12.7494195,22.4455943 C12.6185078,22.279924 12.5472955,22.0749442 12.5472955,21.8637937 L12.5472955,14.9223306 L6.61728701,7.63096249 C6.26881605,7.20249261 6.33366799,6.57265762 6.76213787,6.22418666 C6.94044645,6.07916979 7.16326597,6 7.39310035,6 Z" id="Path-2"></path>
        </g>
    </g>
</svg>