<?xml version="1.0" encoding="UTF-8"?>
<svg width="15px" height="14px" viewBox="0 0 15 14" version="1.1" xmlns="http://www.w3.org/2000/svg" xmlns:xlink="http://www.w3.org/1999/xlink">
    <!-- Generator: sketchtool 48.2 (47327) - http://www.bohemiancoding.com/sketch -->
    <title>4376D7CC-5054-4B84-947D-E5D7818D0897</title>
    <desc>Created with sketchtool.</desc>
    <defs></defs>
    <g id="07_Transcription_Filter_applied" stroke="none" stroke-width="1" fill="none" fill-rule="evenodd" transform="translate(-891.000000, -138.000000)">
        <path d="M905.863,149.994 L903.422,147.553 C905.137442,144.878865 904.562265,141.341793 902.087913,139.348976 C899.61356,137.35616 896.035165,137.547991 893.788044,139.793917 C891.540923,142.039843 891.347188,145.618135 893.338687,148.093548 C895.330187,150.56896 898.866953,151.146019 901.542,149.432 L903.983,151.873 C904.065928,151.956172 904.178549,152.002918 904.296,152.002918 C904.413451,152.002918 904.526072,151.956172 904.609,151.873 L905.863,150.621 C906.035239,150.447486 906.035239,150.167514 905.863,149.994 Z M898.201,148.642 C896.408737,148.642 894.79297,147.562313 894.107194,145.906439 C893.421418,144.250565 893.800699,142.344635 895.068164,141.077456 C896.335628,139.810278 898.241644,139.431427 899.897363,140.117577 C901.553082,140.803727 902.632404,142.419737 902.632,144.212 C902.628142,146.657088 900.64609,148.637798 898.201,148.64 L898.201,148.642 Z" id="Search" fill="#999999"></path>
    </g>
</svg>